<svg version="1.1" id="Layer_1" xmlns="http://www.w3.org/2000/svg" xmlns:xlink="http://www.w3.org/1999/xlink" x="0px" y="0px"
	 width="100%" viewBox="0 0 594 730" enable-background="new 0 0 594 730" xml:space="preserve">
<path fill="#DA524B" opacity="1.000000" stroke="none" 
	d="
M0.999995,553.000000 
	C1.000000,437.977997 1.000000,322.955963 1.326334,207.346039 
	C11.699105,200.893402 21.720392,194.985092 31.797256,189.173141 
	C52.387058,177.297668 73.038986,165.529648 93.604782,153.612869 
	C112.872849,142.448059 132.023987,131.081390 151.297882,119.926727 
	C170.860123,108.605194 190.518127,97.449211 210.118164,86.192833 
	C225.969223,77.089516 241.796066,67.944077 257.634399,58.818638 
	C268.005829,52.843044 278.602356,47.216949 288.651367,40.741215 
	C293.303070,37.743595 296.983948,36.943207 301.823120,39.824333 
	C314.485687,47.363323 327.301697,54.645927 340.093811,61.965584 
	C350.593536,67.973534 361.196716,73.801781 371.665588,79.862427 
	C391.000488,91.055794 410.246887,102.401978 429.576965,113.603645 
	C440.330750,119.835396 451.224762,125.825203 461.974548,132.063675 
	C480.866760,143.027496 499.665192,154.153168 518.568237,165.098175 
	C526.308655,169.579956 534.303223,173.623550 542.033875,178.121399 
	C556.321777,186.434464 570.273499,195.358398 584.827576,203.166016 
	C591.354187,206.667221 593.775818,210.781631 593.764343,218.041946 
	C593.593018,325.871338 593.646118,433.701111 593.645325,541.530762 
	C593.645325,542.864014 593.700195,544.201416 593.616394,545.529724 
	C593.357727,549.631226 591.597778,552.551270 587.785522,554.643433 
	C577.734619,560.159546 567.877747,566.029175 557.941101,571.753723 
	C541.812927,581.045166 525.688782,590.343567 509.551575,599.619385 
	C495.140594,607.903015 480.676453,616.094849 466.305267,624.446838 
	C451.649017,632.964417 437.130432,641.719299 422.456726,650.206238 
	C398.718414,663.936157 374.903259,677.533203 351.119171,691.183960 
	C334.688629,700.614136 318.207977,709.958557 301.853882,719.519409 
	C297.160675,722.263123 293.081482,721.572327 288.789276,718.870483 
	C284.312988,716.052795 279.735992,713.389465 275.142090,710.765320 
	C264.205048,704.517822 253.184525,698.415466 242.284073,692.105225 
	C222.948944,680.912231 203.701172,669.568359 184.370850,658.367004 
	C173.617035,652.135376 162.738190,646.119751 151.972717,639.907959 
	C135.340179,630.310730 118.780182,620.587769 102.143272,610.998169 
	C92.107887,605.213745 81.943245,599.653442 71.911156,593.863342 
	C55.423073,584.347046 39.011997,574.697327 22.534687,565.162170 
	C15.399733,561.033325 8.180785,557.049622 0.999995,553.000000 
M224.669403,415.716705 
	C217.823837,406.126892 211.096100,396.449524 204.071091,386.992981 
	C201.484940,383.511688 202.363129,382.085938 205.969482,380.390198 
	C216.360001,375.504486 226.395950,370.138214 234.293289,361.339905 
	C249.222824,344.707153 255.998184,326.079712 250.091980,303.768555 
	C246.219513,289.139984 229.098038,273.550690 214.258041,271.135590 
	C206.779617,269.918579 199.442123,267.803253 191.951508,266.702209 
	C183.942917,265.525024 175.811371,264.274994 167.764938,264.455902 
	C151.499802,264.821594 135.222733,265.755157 119.013985,267.177246 
	C106.465065,268.278259 94.001854,270.408051 81.534714,272.305084 
	C80.349709,272.485413 78.662369,274.159424 78.492210,275.327057 
	C77.953323,279.024902 78.023727,282.811554 77.848938,286.781189 
	C85.524368,288.239563 92.625099,289.916321 99.821831,290.864014 
	C107.016068,291.811462 108.071228,292.538116 108.071938,299.637909 
	C108.077240,352.799377 108.075310,405.960815 108.074562,459.122284 
	C108.074539,460.622101 108.490784,462.299866 107.958481,463.581177 
	C107.103294,465.639679 106.034805,468.456055 104.321747,469.157257 
	C98.547638,471.520691 92.551788,474.098114 86.450203,474.717987 
	C78.491066,475.526581 77.720314,479.636932 76.357559,485.386414 
	C75.436592,489.272034 76.520775,491.067535 81.071747,491.016876 
	C100.734047,490.798096 120.400185,490.924866 140.064926,490.924103 
	C150.397247,490.923706 160.731888,491.026611 171.059326,490.801300 
	C172.601364,490.767609 175.318893,489.309052 175.423096,488.296661 
	C175.862640,484.026550 175.540375,479.674957 175.379364,475.357544 
	C175.372986,475.186981 174.168671,475.068787 173.525681,474.913147 
	C165.509537,472.973053 157.532898,470.841492 149.459579,469.179352 
	C146.111023,468.489929 143.687485,467.517395 143.684540,463.714417 
	C143.667480,441.716705 143.631073,419.718567 143.810638,397.722290 
	C143.821045,396.447754 145.662079,394.098602 146.661331,394.093079 
	C155.130203,394.046509 163.606201,394.337372 172.066681,394.781860 
	C173.305542,394.846924 174.961441,395.974396 175.600449,397.084534 
	C183.204651,410.295258 190.657272,423.593292 198.140289,436.873718 
	C207.599045,453.660614 217.416046,470.182007 232.829193,482.422943 
	C242.103699,489.788666 252.602020,494.357300 264.512390,494.534180 
	C270.600342,494.624634 276.741791,493.651428 282.794891,492.735046 
	C287.540344,492.016632 291.936584,485.989899 291.457489,481.038239 
	C291.331390,479.734802 289.963837,478.060059 288.726685,477.455292 
	C285.935852,476.090973 282.828735,475.393372 279.923584,474.239929 
	C266.042236,468.728699 256.089691,458.521088 247.452988,446.803436 
	C239.972107,436.653900 232.580521,426.438599 224.669403,415.716705 
M369.416718,491.976959 
	C373.280090,492.887024 377.104523,494.042053 381.013794,494.663391 
	C395.355347,496.942749 409.723999,497.286987 424.231567,495.909302 
	C445.842346,493.857086 466.876587,490.231689 486.173706,479.408752 
	C490.224304,477.136963 492.029877,474.816956 491.985565,470.234863 
	C491.819733,453.072845 491.918701,435.908264 491.927124,418.744629 
	C491.930420,411.981506 492.898834,410.875244 499.332581,409.006073 
	C503.281006,407.858978 507.203003,406.526184 510.978485,404.907318 
	C514.195312,403.527985 516.921082,396.603333 515.824402,392.677460 
	C514.620544,388.367828 510.819580,390.286621 508.233215,390.272308 
	C480.738892,390.120209 453.243317,390.228424 425.748352,390.153961 
	C414.145660,390.122528 414.522034,389.248566 414.014771,402.810181 
	C413.911469,405.571289 415.179749,406.482300 417.882019,406.733215 
	C424.139648,407.314178 430.390167,408.103363 436.590668,409.128326 
	C442.120544,410.042389 447.627747,411.208374 453.032776,412.676178 
	C454.254578,413.007996 455.841858,415.039307 455.857361,416.305450 
	C456.050873,432.133606 456.155731,447.968750 455.801086,463.791321 
	C455.748657,466.131317 453.746399,469.463867 451.709167,470.506836 
	C447.505005,472.659088 442.759186,474.203094 438.074768,474.879700 
	C426.023865,476.620148 414.042175,476.467285 402.038177,473.358795 
	C389.384430,470.082031 378.571075,463.902283 368.921600,455.344971 
	C356.532104,444.357819 349.017456,430.372131 343.346222,415.036591 
	C338.859222,402.903320 336.471008,390.529083 335.867706,377.652252 
	C335.135559,362.025391 338.111664,346.965057 342.072662,332.023499 
	C345.592072,318.747742 352.095123,306.882904 362.313995,297.866089 
	C375.211914,286.485382 391.295654,281.408997 408.175507,281.335205 
	C423.929932,281.266296 439.541565,284.390411 453.101654,293.281372 
	C458.422760,296.770264 464.918854,299.497803 465.897766,307.466400 
	C466.885498,315.506805 468.569977,323.472443 470.237488,331.410278 
	C470.616119,333.212646 471.825165,335.688416 473.273621,336.249603 
	C476.771088,337.604553 480.612762,338.328796 484.367004,338.602112 
	C485.455597,338.681366 487.492035,336.516907 487.749481,335.131195 
	C488.411621,331.567139 488.248718,327.857361 488.543823,324.216187 
	C489.549957,311.802460 490.709290,299.400238 491.601990,286.978699 
	C491.943115,282.232239 489.904816,278.790741 485.190186,276.871460 
	C472.215607,271.589600 459.132294,267.080414 445.169434,264.728485 
	C426.966705,261.662384 409.093933,262.776886 391.284210,266.458923 
	C384.535370,267.854218 378.081146,270.661285 371.478821,272.781769 
	C358.788513,276.857513 347.771912,283.839233 337.925842,292.630188 
	C329.764069,299.917297 322.402161,307.813385 316.659058,317.412415 
	C309.752563,328.955902 303.470398,340.810425 300.402100,353.759918 
	C297.206818,367.245178 295.397125,381.057800 297.029236,395.206757 
	C298.761414,410.223480 301.060577,424.814941 307.386078,438.834473 
	C319.702240,466.131683 340.068359,483.524353 369.416718,491.976959 
z"/>
<path fill="#000000" opacity="1.000000" stroke="none" 
	d="
M1.000001,204.000000 
	C1.000000,136.362625 1.000000,68.725243 1.000000,1.043934 
	C198.884995,1.043934 396.770020,1.043934 595.000000,1.043934 
	C595.000000,69.354958 595.000000,137.710495 594.650879,206.506439 
	C588.927185,203.675720 583.615051,200.296265 578.164795,197.156570 
	C567.676514,191.114777 557.070129,185.278198 546.585571,179.230148 
	C530.801758,170.125214 515.088989,160.897293 499.328766,151.751373 
	C492.877625,148.007629 486.353943,144.388611 479.911560,140.630051 
	C465.890167,132.449783 451.943817,124.139946 437.882507,116.029259 
	C426.965912,109.732483 415.874420,103.739365 404.945007,97.464386 
	C388.133148,87.812065 371.393066,78.034798 354.623688,68.308479 
	C348.891083,64.983536 343.181671,61.618027 337.427368,58.331089 
	C325.196014,51.344341 313.054932,44.183388 300.604492,37.609673 
	C298.047058,36.259373 294.212799,36.668488 291.128967,37.202160 
	C289.019012,37.567299 287.245392,39.652531 285.226227,40.801411 
	C269.920258,49.510265 254.516388,58.049633 239.286301,66.888680 
	C217.299133,79.649323 195.488129,92.713608 173.498016,105.469109 
	C154.247986,116.635208 134.811401,127.479324 115.536209,138.602570 
	C95.103958,150.393524 74.774025,162.361679 54.381702,174.222015 
	C41.889393,181.487671 29.407963,188.774124 16.831783,195.892471 
	C11.676495,198.810471 6.284383,201.310074 1.000001,204.000000 
z"/>
<path fill="#000000" opacity="1.000000" stroke="none" 
	d="
M595.000000,553.000000 
	C595.000000,612.306091 595.000000,671.612183 595.000000,730.959106 
	C397.118134,730.959106 199.236267,730.959106 1.000000,730.959106 
	C1.000000,672.312378 1.000000,613.624023 1.279863,554.655640 
	C6.681273,557.429321 11.799904,560.487976 16.924994,563.535828 
	C27.033180,569.547119 37.087078,575.652710 47.275631,581.524719 
	C54.028042,585.416382 61.072010,588.802917 67.816017,592.708191 
	C82.864265,601.422363 97.767975,610.385925 112.805298,619.119202 
	C122.847832,624.951599 133.053177,630.502991 143.124069,636.287415 
	C155.470551,643.378906 167.732834,650.616882 180.068985,657.726501 
	C189.971588,663.433533 199.961395,668.989502 209.856522,674.709290 
	C225.790298,683.919739 241.701721,693.169434 257.576569,702.481018 
	C268.013794,708.603149 278.430817,714.764709 288.732117,721.111145 
	C292.746918,723.584656 296.460449,724.576843 300.822998,721.994934 
	C309.696014,716.743530 318.687927,711.693115 327.628510,706.555786 
	C347.388367,695.201416 367.158905,683.865540 386.901733,672.481689 
	C401.889130,663.839905 416.827026,655.112244 431.811890,646.466003 
	C446.653625,637.902222 461.531586,629.401245 476.384460,620.856812 
	C492.388733,611.649963 508.399017,602.453430 524.375793,593.199097 
	C539.777344,584.278076 555.095825,575.212952 570.536682,566.360901 
	C578.595703,561.740784 586.839600,557.443237 595.000000,553.000000 
z"/>
<path fill="#461A18" opacity="1.000000" stroke="none" 
	d="
M595.000000,552.531372 
	C586.839600,557.443237 578.595703,561.740784 570.536682,566.360901 
	C555.095825,575.212952 539.777344,584.278076 524.375793,593.199097 
	C508.399017,602.453430 492.388733,611.649963 476.384460,620.856812 
	C461.531586,629.401245 446.653625,637.902222 431.811890,646.466003 
	C416.827026,655.112244 401.889130,663.839905 386.901733,672.481689 
	C367.158905,683.865540 347.388367,695.201416 327.628510,706.555786 
	C318.687927,711.693115 309.696014,716.743530 300.822998,721.994934 
	C296.460449,724.576843 292.746918,723.584656 288.732117,721.111145 
	C278.430817,714.764709 268.013794,708.603149 257.576569,702.481018 
	C241.701721,693.169434 225.790298,683.919739 209.856522,674.709290 
	C199.961395,668.989502 189.971588,663.433533 180.068985,657.726501 
	C167.732834,650.616882 155.470551,643.378906 143.124069,636.287415 
	C133.053177,630.502991 122.847832,624.951599 112.805298,619.119202 
	C97.767975,610.385925 82.864265,601.422363 67.816017,592.708191 
	C61.072010,588.802917 54.028042,585.416382 47.275631,581.524719 
	C37.087078,575.652710 27.033180,569.547119 16.924994,563.535828 
	C11.799904,560.487976 6.681273,557.429321 1.279863,554.187744 
	C1.000000,554.000000 1.000000,553.500000 0.999995,553.250000 
	C8.180785,557.049622 15.399733,561.033325 22.534687,565.162170 
	C39.011997,574.697327 55.423073,584.347046 71.911156,593.863342 
	C81.943245,599.653442 92.107887,605.213745 102.143272,610.998169 
	C118.780182,620.587769 135.340179,630.310730 151.972717,639.907959 
	C162.738190,646.119751 173.617035,652.135376 184.370850,658.367004 
	C203.701172,669.568359 222.948944,680.912231 242.284073,692.105225 
	C253.184525,698.415466 264.205048,704.517822 275.142090,710.765320 
	C279.735992,713.389465 284.312988,716.052795 288.789276,718.870483 
	C293.081482,721.572327 297.160675,722.263123 301.853882,719.519409 
	C318.207977,709.958557 334.688629,700.614136 351.119171,691.183960 
	C374.903259,677.533203 398.718414,663.936157 422.456726,650.206238 
	C437.130432,641.719299 451.649017,632.964417 466.305267,624.446838 
	C480.676453,616.094849 495.140594,607.903015 509.551575,599.619385 
	C525.688782,590.343567 541.812927,581.045166 557.941101,571.753723 
	C567.877747,566.029175 577.734619,560.159546 587.785522,554.643433 
	C591.597778,552.551270 593.357727,549.631226 593.616394,545.529724 
	C593.700195,544.201416 593.645325,542.864014 593.645325,541.530762 
	C593.646118,433.701111 593.593018,325.871338 593.764343,218.041946 
	C593.775818,210.781631 591.354187,206.667221 584.827576,203.166016 
	C570.273499,195.358398 556.321777,186.434464 542.033875,178.121399 
	C534.303223,173.623550 526.308655,169.579956 518.568237,165.098175 
	C499.665192,154.153168 480.866760,143.027496 461.974548,132.063675 
	C451.224762,125.825203 440.330750,119.835396 429.576965,113.603645 
	C410.246887,102.401978 391.000488,91.055794 371.665588,79.862427 
	C361.196716,73.801781 350.593536,67.973534 340.093811,61.965584 
	C327.301697,54.645927 314.485687,47.363323 301.823120,39.824333 
	C296.983948,36.943207 293.303070,37.743595 288.651367,40.741215 
	C278.602356,47.216949 268.005829,52.843044 257.634399,58.818638 
	C241.796066,67.944077 225.969223,77.089516 210.118164,86.192833 
	C190.518127,97.449211 170.860123,108.605194 151.297882,119.926727 
	C132.023987,131.081390 112.872849,142.448059 93.604782,153.612869 
	C73.038986,165.529648 52.387058,177.297668 31.797256,189.173141 
	C21.720392,194.985092 11.699105,200.893402 1.326334,206.879059 
	C1.000000,206.250000 1.000000,205.500000 1.000001,204.375000 
	C6.284383,201.310074 11.676495,198.810471 16.831783,195.892471 
	C29.407963,188.774124 41.889393,181.487671 54.381702,174.222015 
	C74.774025,162.361679 95.103958,150.393524 115.536209,138.602570 
	C134.811401,127.479324 154.247986,116.635208 173.498016,105.469109 
	C195.488129,92.713608 217.299133,79.649323 239.286301,66.888680 
	C254.516388,58.049633 269.920258,49.510265 285.226227,40.801411 
	C287.245392,39.652531 289.019012,37.567299 291.128967,37.202160 
	C294.212799,36.668488 298.047058,36.259373 300.604492,37.609673 
	C313.054932,44.183388 325.196014,51.344341 337.427368,58.331089 
	C343.181671,61.618027 348.891083,64.983536 354.623688,68.308479 
	C371.393066,78.034798 388.133148,87.812065 404.945007,97.464386 
	C415.874420,103.739365 426.965912,109.732483 437.882507,116.029259 
	C451.943817,124.139946 465.890167,132.449783 479.911560,140.630051 
	C486.353943,144.388611 492.877625,148.007629 499.328766,151.751373 
	C515.088989,160.897293 530.801758,170.125214 546.585571,179.230148 
	C557.070129,185.278198 567.676514,191.114777 578.164795,197.156570 
	C583.615051,200.296265 588.927185,203.675720 594.650879,206.973419 
	C595.000000,322.020905 595.000000,437.041779 595.000000,552.531372 
z"/>
<path fill="#FEF9F9" opacity="1.000000" stroke="none" 
	d="
M224.909439,415.984528 
	C232.580521,426.438599 239.972107,436.653900 247.452988,446.803436 
	C256.089691,458.521088 266.042236,468.728699 279.923584,474.239929 
	C282.828735,475.393372 285.935852,476.090973 288.726685,477.455292 
	C289.963837,478.060059 291.331390,479.734802 291.457489,481.038239 
	C291.936584,485.989899 287.540344,492.016632 282.794891,492.735046 
	C276.741791,493.651428 270.600342,494.624634 264.512390,494.534180 
	C252.602020,494.357300 242.103699,489.788666 232.829193,482.422943 
	C217.416046,470.182007 207.599045,453.660614 198.140289,436.873718 
	C190.657272,423.593292 183.204651,410.295258 175.600449,397.084534 
	C174.961441,395.974396 173.305542,394.846924 172.066681,394.781860 
	C163.606201,394.337372 155.130203,394.046509 146.661331,394.093079 
	C145.662079,394.098602 143.821045,396.447754 143.810638,397.722290 
	C143.631073,419.718567 143.667480,441.716705 143.684540,463.714417 
	C143.687485,467.517395 146.111023,468.489929 149.459579,469.179352 
	C157.532898,470.841492 165.509537,472.973053 173.525681,474.913147 
	C174.168671,475.068787 175.372986,475.186981 175.379364,475.357544 
	C175.540375,479.674957 175.862640,484.026550 175.423096,488.296661 
	C175.318893,489.309052 172.601364,490.767609 171.059326,490.801300 
	C160.731888,491.026611 150.397247,490.923706 140.064926,490.924103 
	C120.400185,490.924866 100.734047,490.798096 81.071747,491.016876 
	C76.520775,491.067535 75.436592,489.272034 76.357559,485.386414 
	C77.720314,479.636932 78.491066,475.526581 86.450203,474.717987 
	C92.551788,474.098114 98.547638,471.520691 104.321747,469.157257 
	C106.034805,468.456055 107.103294,465.639679 107.958481,463.581177 
	C108.490784,462.299866 108.074539,460.622101 108.074562,459.122284 
	C108.075310,405.960815 108.077240,352.799377 108.071938,299.637909 
	C108.071228,292.538116 107.016068,291.811462 99.821831,290.864014 
	C92.625099,289.916321 85.524368,288.239563 77.848938,286.781189 
	C78.023727,282.811554 77.953323,279.024902 78.492210,275.327057 
	C78.662369,274.159424 80.349709,272.485413 81.534714,272.305084 
	C94.001854,270.408051 106.465065,268.278259 119.013985,267.177246 
	C135.222733,265.755157 151.499802,264.821594 167.764938,264.455902 
	C175.811371,264.274994 183.942917,265.525024 191.951508,266.702209 
	C199.442123,267.803253 206.779617,269.918579 214.258041,271.135590 
	C229.098038,273.550690 246.219513,289.139984 250.091980,303.768555 
	C255.998184,326.079712 249.222824,344.707153 234.293289,361.339905 
	C226.395950,370.138214 216.360001,375.504486 205.969482,380.390198 
	C202.363129,382.085938 201.484940,383.511688 204.071091,386.992981 
	C211.096100,396.449524 217.823837,406.126892 224.909439,415.984528 
M142.944229,308.500000 
	C142.945450,329.466644 143.051590,350.434174 142.865997,371.399170 
	C142.825195,376.006165 144.392593,377.607086 148.946564,377.423584 
	C155.924072,377.142426 163.002243,376.670288 169.893814,377.489532 
	C185.534851,379.348907 206.007858,362.647522 211.292740,348.294495 
	C215.566483,336.687561 215.000854,325.194794 212.228058,313.535797 
	C209.477203,301.969086 202.744690,293.068024 192.772644,287.004608 
	C178.686752,278.439789 163.066803,278.819092 147.343979,280.410217 
	C143.893997,280.759399 142.846848,282.287933 142.908371,285.535858 
	C143.047043,292.854828 142.947037,300.178345 142.944229,308.500000 
z"/>
<path fill="#FEF9F9" opacity="1.000000" stroke="none" 
	d="
M369.045715,491.804230 
	C340.068359,483.524353 319.702240,466.131683 307.386078,438.834473 
	C301.060577,424.814941 298.761414,410.223480 297.029236,395.206757 
	C295.397125,381.057800 297.206818,367.245178 300.402100,353.759918 
	C303.470398,340.810425 309.752563,328.955902 316.659058,317.412415 
	C322.402161,307.813385 329.764069,299.917297 337.925842,292.630188 
	C347.771912,283.839233 358.788513,276.857513 371.478821,272.781769 
	C378.081146,270.661285 384.535370,267.854218 391.284210,266.458923 
	C409.093933,262.776886 426.966705,261.662384 445.169434,264.728485 
	C459.132294,267.080414 472.215607,271.589600 485.190186,276.871460 
	C489.904816,278.790741 491.943115,282.232239 491.601990,286.978699 
	C490.709290,299.400238 489.549957,311.802460 488.543823,324.216187 
	C488.248718,327.857361 488.411621,331.567139 487.749481,335.131195 
	C487.492035,336.516907 485.455597,338.681366 484.367004,338.602112 
	C480.612762,338.328796 476.771088,337.604553 473.273621,336.249603 
	C471.825165,335.688416 470.616119,333.212646 470.237488,331.410278 
	C468.569977,323.472443 466.885498,315.506805 465.897766,307.466400 
	C464.918854,299.497803 458.422760,296.770264 453.101654,293.281372 
	C439.541565,284.390411 423.929932,281.266296 408.175507,281.335205 
	C391.295654,281.408997 375.211914,286.485382 362.313995,297.866089 
	C352.095123,306.882904 345.592072,318.747742 342.072662,332.023499 
	C338.111664,346.965057 335.135559,362.025391 335.867706,377.652252 
	C336.471008,390.529083 338.859222,402.903320 343.346222,415.036591 
	C349.017456,430.372131 356.532104,444.357819 368.921600,455.344971 
	C378.571075,463.902283 389.384430,470.082031 402.038177,473.358795 
	C414.042175,476.467285 426.023865,476.620148 438.074768,474.879700 
	C442.759186,474.203094 447.505005,472.659088 451.709167,470.506836 
	C453.746399,469.463867 455.748657,466.131317 455.801086,463.791321 
	C456.155731,447.968750 456.050873,432.133606 455.857361,416.305450 
	C455.841858,415.039307 454.254578,413.007996 453.032776,412.676178 
	C447.627747,411.208374 442.120544,410.042389 436.590668,409.128326 
	C430.390167,408.103363 424.139648,407.314178 417.882019,406.733215 
	C415.179749,406.482300 413.911469,405.571289 414.014771,402.810181 
	C414.522034,389.248566 414.145660,390.122528 425.748352,390.153961 
	C453.243317,390.228424 480.738892,390.120209 508.233215,390.272308 
	C510.819580,390.286621 514.620544,388.367828 515.824402,392.677460 
	C516.921082,396.603333 514.195312,403.527985 510.978485,404.907318 
	C507.203003,406.526184 503.281006,407.858978 499.332581,409.006073 
	C492.898834,410.875244 491.930420,411.981506 491.927124,418.744629 
	C491.918701,435.908264 491.819733,453.072845 491.985565,470.234863 
	C492.029877,474.816956 490.224304,477.136963 486.173706,479.408752 
	C466.876587,490.231689 445.842346,493.857086 424.231567,495.909302 
	C409.723999,497.286987 395.355347,496.942749 381.013794,494.663391 
	C377.104523,494.042053 373.280090,492.887024 369.045715,491.804230 
z"/>
<path fill="#DB5550" opacity="1.000000" stroke="none" 
	d="
M142.944183,308.000000 
	C142.947037,300.178345 143.047043,292.854828 142.908371,285.535858 
	C142.846848,282.287933 143.893997,280.759399 147.343979,280.410217 
	C163.066803,278.819092 178.686752,278.439789 192.772644,287.004608 
	C202.744690,293.068024 209.477203,301.969086 212.228058,313.535797 
	C215.000854,325.194794 215.566483,336.687561 211.292740,348.294495 
	C206.007858,362.647522 185.534851,379.348907 169.893814,377.489532 
	C163.002243,376.670288 155.924072,377.142426 148.946564,377.423584 
	C144.392593,377.607086 142.825195,376.006165 142.865997,371.399170 
	C143.051590,350.434174 142.945450,329.466644 142.944183,308.000000 
z"/>
</svg>